<?xml version="1.0" standalone="no"?><!DOCTYPE svg PUBLIC "-//W3C//DTD SVG 1.1//EN" "http://www.w3.org/Graphics/SVG/1.1/DTD/svg11.dtd"><svg t="1625925349070" class="icon" viewBox="0 0 1024 1024" version="1.1" xmlns="http://www.w3.org/2000/svg" p-id="1802" xmlns:xlink="http://www.w3.org/1999/xlink" width="200" height="200"><defs><style type="text/css"></style></defs><path d="M790.6304 776.192H332.1344c-45.4144 0-83.712-33.9968-89.088-79.0528l-58.5216-487.936a28.32896 28.32896 0 0 0-28.1088-24.9344H77.4144c-16.9472 0-30.72-13.7728-30.72-30.72s13.7728-30.72 30.72-30.72h79.0016c45.4144 0 83.712 33.9968 89.088 79.0528l2.816 23.6544h632.832c27.6992 0 53.4528 12.4928 70.5536 34.304s23.1936 49.7664 16.5888 76.6976l-90.5216 371.2512a89.42592 89.42592 0 0 1-87.1424 68.4032zM255.744 286.9248l48.3328 402.8928a28.32896 28.32896 0 0 0 28.1088 24.9344h458.496a28.2112 28.2112 0 0 0 27.4944-21.6064l90.5216-371.2512c2.048-8.4992 0.1536-17.3056-5.2224-24.1664s-13.5168-10.8032-22.2208-10.8032H255.744z" fill="#303135" p-id="1803"></path><path d="M729.7536 650.5984H406.6304c-16.9472 0-30.72-13.7728-30.72-30.72s13.7728-30.72 30.72-30.72h323.1744c16.9472 0 30.72 13.7728 30.72 30.72s-13.7728 30.72-30.7712 30.72z" fill="#FF623E" p-id="1804"></path><path d="M320.5632 866.6112m-51.3536 0a51.3536 51.3536 0 1 0 102.7072 0 51.3536 51.3536 0 1 0-102.7072 0Z" fill="#303135" p-id="1805"></path><path d="M809.7792 866.6112m-51.3536 0a51.3536 51.3536 0 1 0 102.7072 0 51.3536 51.3536 0 1 0-102.7072 0Z" fill="#303135" p-id="1806"></path></svg>